PathFileType	4	(X/Y/Z)	Patient4_TMGait_0pt7_01_left_23.trc.trc
DataRate	CameraRate	NumFrames	NumMarkers	Units	OrigDataRate	OrigDataStartFrame	OrigNumFrames
86.419753086420	86.419753086420	6	33	mm	86.419753086420	53	       141
Frame#	Time	Sacral			L.Shoulder			Chest			R.Shoulder			Neck			R.ASIS			L.ASIS			R.Thigh.Superior			R.Thigh.Lateral			R.Thigh.Inferior			R.Patella			L.Thigh.Superior			L.Thigh.Lateral			L.Thigh.Inferior			L.Patella			L.Shank.Superior			L.Shank.Lateral			L.Shank.Inferior			R.Shank.Superior			R.Shank.Lateral			R.Shank.Inferior			R.Heel			R.Midfoot.Superior			R.Midfoot.Lateral			R.Toe			L.Heel			L.Midfoot.Lateral			L.Midfoot.Superior			L.Toe			L.Elbow			L.Wrist			R.Elbow			R.Wrist			
		X1	Y1	Z1	X2	Y2	Z2	X3	Y3	Z3	X4	Y4	Z4	X5	Y5	Z5	X6	Y6	Z6	X7	Y7	Z7	X8	Y8	Z8	X9	Y9	Z9	X10	Y10	Z10	X11	Y11	Z11	X12	Y12	Z12	X13	Y13	Z13	X14	Y14	Z14	X15	Y15	Z15	X16	Y16	Z16	X17	Y17	Z17	X18	Y18	Z18	X19	Y19	Z19	X20	Y20	Z20	X21	Y21	Z21	X22	Y22	Z22	X23	Y23	Z23	X24	Y24	Z24	X25	Y25	Z25	X26	Y26	Z26	X27	Y27	Z27	X28	Y28	Z28	X29	Y29	Z29	X30	Y30	Z30	X31	Y31	Z31	X32	Y32	Z32	X33	Y33	Z33	

53	27.061714285714	805.877329501871	1016.106717856016	441.063301548586	1001.727086440820	1439.888720914476	263.517174832798	1107.488895904194	1360.544045335206	419.624849001871	1033.370540328150	1437.117749890337	597.414744850981	1012.315613161242	1496.442525471420	418.594897659044	1032.402803560867	943.897926267364	553.758158337599	1016.237554528380	964.777837153167	280.595711711117	1106.791492445059	771.017745758763	529.056331815649	1061.029133278996	652.823969161425	605.646907467416	1151.052169453331	608.628688186151	529.172961323746	1162.880766940547	492.603534882049	553.037111570661	1059.593142404959	752.062285304903	305.914036955085	962.813882792867	638.484992805096	256.030992153581	1045.963725779237	558.418088890786	316.337295938670	1044.301709366985	489.866108662800	329.628203288926	1017.562381266556	418.899197195791	324.202026609429	926.869262425877	304.598848001155	275.660624651805	974.265445427819	194.808445198014	351.628514337582	1077.905582462403	425.143198927588	559.195678388156	950.836528971292	403.433854609666	617.493300796664	923.400417689000	296.682297428444	569.433521718945	720.066061713174	269.158306367504	539.509867867889	871.707560079226	174.656860518905	577.093629894632	762.703399189888	192.379454749414	608.306166699186	911.848696180287	48.890904926814	594.409458109545	843.395523520873	39.875231166481	395.538565425103	920.151400109410	35.680853023816	317.220458325035	1002.965077546072	96.270803427712	345.908417778434	1132.311355635254	40.924974942978	323.415506119419	952.507403581638	1106.367636617764	114.532251168971	1134.517426496616	920.185864189395	115.258931682237	976.628081202237	1095.527588907115	720.348127574477	1145.302957065651	900.093440633093	695.762417896458	
54	27.073285714286	805.325296880139	1016.766159114627	440.424644815089	1003.211406701254	1440.142528483030	262.714014624713	1107.733864605299	1360.689424746446	419.547092542859	1032.767813708702	1437.661274852308	596.745565082774	1012.899640979263	1496.850054412551	417.713517540129	1031.723287194842	944.760768723592	553.778270146931	1015.910165498226	965.278645404770	280.523001029863	1109.287503098112	775.693357379048	528.515216094024	1067.003538656347	656.581265343167	605.746831697500	1158.084755268948	614.633106161129	529.225167836671	1173.108898070897	498.857551351498	553.102232236356	1056.547833545414	751.268648624016	305.488515481912	958.038249651991	638.991143806325	255.591968964408	1040.075015729997	557.802961041871	315.614779837404	1037.449698239012	489.476466045508	328.889918760201	1010.566908840874	418.885074425768	323.422655709239	919.051505169547	305.027314718091	275.174269646695	966.529792036336	194.991813131383	350.938436174304	1089.835052425883	429.365656132552	559.122736778479	963.283389495535	404.054650547240	617.005009664199	938.819825729710	296.620384553930	568.767663047289	736.098708095417	263.083432611301	538.489336321561	890.550933342629	173.488000395329	576.248405371518	781.122557429143	187.779440414450	607.384635733211	934.682267719847	49.466901016157	593.640017664965	835.207896496675	40.105275905511	395.347078764879	912.030755736714	35.698546929770	317.119705061736	994.895754374787	96.292342465032	345.592283590486	1124.165530955295	40.838778127009	323.296644561947	961.240345432859	1106.962518341918	111.565943454228	1151.653859046785	929.930280445506	114.221289982828	970.610575402490	1096.646574477108	719.356463467700	1122.994729632793	887.155593066496	700.075503991473	
55	27.084857142857	804.811583272553	1017.330997317696	439.935468027224	1004.789076612681	1440.319708044623	262.017226373581	1108.036582336484	1360.737002955633	419.562924225259	1032.251215252553	1438.130935283592	596.153622764403	1013.520431469424	1497.162970478637	416.906680448232	1031.033878233189	945.514298418823	553.920952386054	1015.568243720270	965.659927888244	280.594181132553	1111.500706797348	780.170231906201	528.284584763672	1072.520782643280	660.216900688674	605.972542320590	1164.541742499651	620.442579002740	529.398614957851	1182.656345406784	505.142536336950	553.286720308681	1053.506482187307	750.460050101638	305.407155524703	953.342419351012	639.500795298493	255.254245777807	1034.173111611248	557.207781484147	315.079536393074	1030.571725668271	489.114910891870	328.303778746894	1003.566712828563	418.885294518170	322.765820903011	911.261145488865	305.472662875689	274.798855017673	958.815297620446	195.181352217913	350.317447265863	1101.447445896822	433.415051694694	559.178119699551	975.690790196206	403.864539497607	616.737790456084	954.759515543936	295.682746621907	568.348420681244	752.973132597989	255.139394991998	537.805091222068	910.558572915445	171.278183682814	575.769490255198	800.728856690954	181.641901026129	606.835750739566	959.259306932342	49.271922533756	593.337858498934	827.032370505110	40.353885376872	395.164957087848	903.917660366575	35.727585134349	317.042215482522	986.837579520559	96.321862510336	345.308241064732	1116.029510834697	40.750470227671	323.189753426058	969.721459032573	1107.726574949696	108.829660392939	1167.969667238597	940.084770550896	113.555930357842	965.063989251096	1097.859844445056	718.740734394044	1100.097420401237	875.800309029483	704.306959928743	
56	27.096428571429	804.348071902233	1017.771040663738	439.590600910240	1006.428930994327	1440.392750323910	261.443952935625	1108.395661577552	1360.663545372533	419.678396958509	1031.834170585645	1438.495524357214	595.658980218406	1014.179875180938	1497.356362897002	416.194464861302	1030.344839448333	946.120335724633	554.178546714090	1015.225363816226	965.899915304689	280.798961261443	1113.422731198036	784.352211243977	528.295888012970	1077.569088023968	663.632278689700	606.280034642762	1170.374633377885	625.916974638316	529.624190071856	1191.440308669477	511.320554766977	553.532948710835	1050.542654886720	749.610127394564	305.628319159009	948.751873179931	639.994716920706	255.013503610863	1028.289624457240	556.616472711607	314.721900930121	1023.707044870919	488.768289119888	327.866807115304	996.591920335831	418.881640797989	322.236645865878	903.534966291096	305.916178227784	274.536363534802	951.131159866028	195.361734879846	349.784075040599	1112.657343871771	437.209508956621	559.331820331660	988.063052496857	402.853036146373	616.720359834561	971.172618052572	293.926798481377	568.212538190811	770.746207802698	245.510405712111	537.590720251449	931.647507206342	168.143603466506	575.679899809219	821.525984468330	174.159466404860	606.755189382665	985.388566931282	48.434838729570	593.511912894099	818.874461816937	40.618508893011	394.994992291603	895.811101346988	35.768952482931	316.988349352227	978.790075144499	96.356906077056	345.061933957676	1107.903688845091	40.660409382276	323.093853628864	977.922305836668	1108.617274976014	106.298752679652	1183.410172040148	950.535033451335	113.227846885355	959.859380162989	1099.143081496994	718.456698490918	1076.944526504138	866.169241914753	708.361156084299	
57	27.108000000000	803.947714124627	1018.066120189190	439.382991840690	1008.098620786249	1440.339979749291	261.011565697027	1108.810201413912	1360.451904925674	419.899703117892	1031.531824916013	1438.730572540796	595.281347305033	1014.883218135482	1497.411135959073	415.599369058591	1029.670491216877	946.551252909967	554.544992076019	1014.899871810708	965.985721748810	281.124806010551	1115.041011489843	788.145610931381	528.476603141906	1082.116988643836	666.731022189283	606.624861374265	1175.525197166144	630.916205447569	529.843095602313	1199.368550387002	517.252312896953	553.785115893588	1047.718845609279	748.690823623283	306.102277156099	944.281090309218	640.453371335963	254.868546363563	1022.448270384683	556.012334641006	314.533638960204	1016.888560927767	488.422781428759	327.575382292404	989.663275307466	418.858592175589	321.840113106989	895.899703353526	306.341030657322	274.386150877470	943.480232377945	195.519956146909	349.355957139499	1123.371876117332	440.678075405433	559.553452690034	1000.407696798147	401.023370189004	616.977456224517	988.015563863982	291.431426098995	568.385506529575	789.490907023561	234.386009528931	537.956578340390	953.750810204088	164.236695342673	575.989029548567	843.535798601802	165.542167158072	607.216488169051	1012.909965113321	47.160065705933	594.146929341818	810.737432149117	40.895059185441	394.839882217378	887.708897875338	35.822984479545	316.958007192816	970.751480024707	96.394463902990	344.857751282334	1099.786124427003	40.569795350512	323.007984570078	985.825104556344	1109.594970335680	103.951981296696	1197.931849542096	961.161272845912	113.201444894369	954.851254870708	1100.489262724364	718.445451626341	1053.903039038035	858.359920837554	712.135303940269	
58	27.119571428571	803.624356867855	1018.206698403018	439.304615997087	1009.768834978163	1440.146684655971	260.735392471036	1109.280736038483	1360.091749696116	420.232095933733	1031.359922941585	1438.819240134002	595.038123721515	1015.638977876568	1497.314724582717	415.143592991760	1029.030005658871	946.790315230211	555.015314433492	1014.615205516228	965.914324540540	281.556965716815	1116.341335849822	791.459690685533	528.760819370810	1086.112239439206	669.419409675184	606.968121455096	1179.926410341724	635.302679602619	530.013331277047	1206.341280361881	522.800885840285	553.994051713557	1045.076671586055	747.676463877968	306.776817043288	939.934139257025	640.858325393222	254.819311848407	1016.664649547961	555.379412552015	314.506803784967	1010.141364117852	488.064302036729	327.423759998472	982.791617823119	418.804208964836	321.579389629847	888.370633748578	306.733549834299	274.344260515571	935.860057557716	195.646054161160	349.047143874753	1133.492253314198	443.761705546618	559.815189840280	1012.730081463871	398.395856615186	617.529095427126	1005.243866576528	288.295446968921	568.879555229450	809.290274043446	221.960580996360	538.977612562539	976.812262823378	159.742815331249	576.694228969030	866.788974330492	156.016508443679	608.265113421610	1041.686241447066	45.712107341933	595.209582783648	802.622004621744	41.177900486121	394.702551557177	879.608170237928	35.889240778249	316.950703490007	962.719152909034	96.431242894115	344.698435935675	1091.672856711235	40.480203213771	322.931402162801	993.417438555969	1110.624508676015	101.773818985226	1211.501455833442	971.842114507232	113.442489259726	949.892700950799	1101.907383860280	718.643472333290	1031.344349299122	852.406180392469	715.540216592049	
